HIERARCHY
ROOT pelvis
{
  OFFSET 0 100 0
  CHANNELS 6 Xposition Yposition Zposition Zrotation Xrotation Yrotation
  JOINT pelvis_right_femur
  {
    OFFSET -10.78128 -3.44521 -0.5502486
    CHANNELS 3 Zrotation Xrotation Yrotation
    JOINT right_femur_tibia
    {
      OFFSET -0.8047443 -44.0398 -0.1307829
      CHANNELS 3 Zrotation Xrotation Yrotation
      JOINT right_tibia_foot
      {
        OFFSET 3.006224 -47.83518 -5
        CHANNELS 3 Zrotation Xrotation Yrotation
        End Site
        {
          OFFSET 0 -5 15
        }
      }
    }
  }
  JOINT pelvis_left_femur
  {
    OFFSET 10.78128 -3.44521 -0.5502486
    CHANNELS 3 Zrotation Xrotation Yrotation
    JOINT left_femur_tibia
    {
      OFFSET 0.8047443 -44.0398 -0.1307829
      CHANNELS 3 Zrotation Xrotation Yrotation
      JOINT left_tibia_foot
      {
        OFFSET -4.370144 -48.10324 -4.275266
        CHANNELS 3 Zrotation Xrotation Yrotation
        End Site
        {
          OFFSET 0 -5 15
        }
      }
    }
  }
  JOINT pelvis_spine1
  {
    OFFSET 0 6.468898 -3.129235
    CHANNELS 3 Zrotation Xrotation Yrotation
    JOINT spine1
    {
      OFFSET 0 23.15396 4.99043
      CHANNELS 3 Zrotation Xrotation Yrotation
      JOINT spine2
      {
        OFFSET 0 20.79997 -5.064912
        CHANNELS 3 Zrotation Xrotation Yrotation
        JOINT neck
        {
          OFFSET 0 14.38658 9.616178
          CHANNELS 3 Zrotation Xrotation Yrotation
          End Site
          {
            OFFSET 0 20 0
          }
        }
      }
      JOINT right_manubrium
      {
        OFFSET -5.722621 16.35077 3.967754
        CHANNELS 3 Zrotation Xrotation Yrotation
        JOINT right_clavicle
        {
          OFFSET -13.16364 1.694482 -4.693211
          CHANNELS 3 Zrotation Xrotation Yrotation
          JOINT right_humerus
          {
            OFFSET -28.5034 -0.3100689 -2.792744
            CHANNELS 3 Zrotation Xrotation Yrotation
            JOINT right_radius
            {
              OFFSET -25.15693 0.02248979 -1.271978
              CHANNELS 3 Zrotation Xrotation Yrotation
              End Site
              {
                OFFSET -15 0 0
              }
            }
          }
        }
      }
      JOINT left_manubrium
      {
        OFFSET 5.722621 16.35077 3.967754
        CHANNELS 3 Zrotation Xrotation Yrotation
        JOINT left_clavicle
        {
          OFFSET 13.16364 1.694482 -4.693211
          CHANNELS 3 Zrotation Xrotation Yrotation
          JOINT left_humerus
          {
            OFFSET 29.39168 -1.063119 -2.237045
            CHANNELS 3 Zrotation Xrotation Yrotation
            JOINT left_radius
            {
              OFFSET 24.59957 -0.9528479 0.9047498
              CHANNELS 3 Zrotation Xrotation Yrotation
              End Site
              {
                OFFSET 15 -0 -0
              }
            }
          }
        }
      }
    }
  }
}
MOTION
Frames: 21
Frame Time: 0.0416666666667
0 103.5113 0 2.024634 -1.069802 0.08011273 2.340662 -12.42568 10.93333 -0 42.20631 -0 -5.601512 -18.13787 -3.409387 -7.740864 9.706481 -23.41364 -0 6.047748 -0 13.24086 -12.95195 28.95805 -4.666605 -5.101154 5.201216 2.524196 10.72387 -7.930217 1.056705 21.58701 6.160346 2.942666 -23.85846 8.538797 7.357309 -20.29896 11.96154 85.24065 37.45967 -18.47201 -0 0 16.79359 -6.326454 6.812795 4.011642 5.688829 -19.33033 -1.249993 -91.80191 21.00986 20.12834 0 0 -13.46769 13.79836 13.9267 -3.013535
0.3162844 103.6202 1.646931 1.550541 -0.8943454 0.1214322 2.849601 -14.9494 10.25192 -0 41.80834 -0 -6.366428 -16.70903 -3.370024 -7.320811 9.984314 -22.66604 -0 5.644226 -0 12.8558 -13.80852 28.33848 -4.454548 -4.441243 4.801706 2.592708 10.59371 -8.024999 0.9685023 21.53037 6.511261 3.182991 -23.90517 8.638721 7.46522 -19.92349 12.0113 85.2816 37.97359 -18.52253 -0 0 16.07149 -7.088069 7.425673 4.220647 5.88724 -19.74362 -1.350064 -91.41768 20.85697 19.50031 0 0 -13.80157 13.94547 14.19723 -3.184433
0.5657047 103.3611 3.903632 -0.5886733 -0.4157179 0.3021599 4.529048 -25.85444 6.488529 -0 37.69786 -0 -8.851802 -8.623924 -3.729956 -5.496631 12.3333 -18.52313 -0 4.155064 -0 8.338949 -18.89178 23.6604 -3.327258 -1.38227 2.631418 3.02157 9.667241 -8.742546 0.4205122 21.62512 8.291298 3.962755 -24.18605 9.095452 7.030471 -18.13907 12.11885 86.7516 38.4752 -20.29214 -0 0 11.65531 -11.69924 10.9376 6.459469 6.083177 -21.54955 -2.419971 -90.18214 24.33654 17.58335 0 0 -17.78093 8.970518 16.19385 3.324168
0.8366727 102.9007 6.279726 -0.6145095 0.4373214 0.4636147 5.027727 -26.93368 6.804809 -0 33.07162 -0 -8.096716 -9.269292 -3.354825 -5.666955 12.15368 -18.79668 -0 4.487658 -0 7.694226 -20.17386 23.50842 -3.286275 -1.481637 3.183961 3.17935 9.314153 -8.598319 0.7203827 21.22673 7.939785 3.985711 -24.93127 9.121767 6.625236 -18.31732 11.85879 86.31447 37.07204 -20.06603 -0 0 12.81039 -10.16553 9.631976 5.78813 6.691808 -21.41542 -1.770581 -91.21036 24.3123 18.35276 0 0 -17.37485 9.251895 15.99778 2.994658
1.168023 102.3939 8.486743 -0.1713789 1.331684 0.5077116 5.381945 -25.09228 8.272735 -0 29.80986 -0 -6.56525 -12.12332 -2.913478 -6.306616 11.1715 -20.6732 -0 5.401692 -0 7.360659 -20.83007 24.48742 -3.520586 -2.273814 4.324683 3.198705 8.943364 -8.193726 1.261312 20.883 7.118307 3.84225 -25.75034 9.112132 6.41961 -19.03783 11.45928 85.29952 35.76181 -19.3045 -0 0 15.71652 -7.100034 7.472756 4.49551 7.028509 -20.48383 -0.8186654 -93.62074 25.42463 20.88637 0 0 -15.86309 8.507124 15.9985 3.829146
1.520424 101.7898 10.79439 -0.27334 1.912181 0.553988 5.776258 -26.06016 8.383175 -0 27.19743 -0 -6.200473 -11.91845 -2.675458 -6.341158 11.10223 -20.7691 -0 5.865044 -0 6.462282 -21.86955 24.03383 -3.450547 -2.210094 4.564165 3.269906 8.672817 -8.114449 1.451571 20.64053 6.98439 3.912446 -26.20467 9.170638 6.233861 -19.05466 11.27743 85.10366 35.13798 -19.2842 -0 0 16.31984 -6.429255 6.982341 4.224569 7.31358 -20.39332 -0.4796684 -94.38562 25.96381 21.55786 0 0 -15.79054 7.900279 16.05346 4.606456
1.862472 101.0578 13.35594 -0.6304345 2.424532 0.659158 6.229278 -28.46033 7.892048 -0 24.37426 -0 -6.344244 -10.30968 -2.551571 -6.069998 11.60084 -20.04966 -0 6.212686 -0 5.153419 -23.11586 22.79746 -3.220981 -1.793118 4.392957 3.380381 8.432812 -8.210455 1.482873 20.41339 7.178004 4.086464 -26.52244 9.274552 6.051782 -18.72284 11.19005 85.33428 34.83415 -19.74803 -0 0 15.79516 -6.83832 7.332296 4.361829 7.604809 -20.72576 -0.4118584 -94.333 26.30474 21.31874 0 0 -16.58249 7.302089 16.1213 5.438626
2.204866 100.2372 16.17994 -0.8856315 3.10221 0.8127472 6.749644 -30.31934 7.744112 -0 21.31413 -0 -6.260602 -9.138019 -2.279834 -5.936193 11.87693 -19.66705 -0 7.027223 -0 3.921976 -24.23655 21.76466 -3.036534 -1.588507 4.441019 3.471439 8.188558 -8.217655 1.625432 20.09501 7.187813 4.226398 -26.97588 9.373934 5.868794 -18.5101 11.03359 85.395 34.36375 -20.03849 -0 0 15.75967 -6.693497 7.275531 4.235631 7.959855 -20.86898 -0.1285958 -94.57876 26.4408 21.39385 0 0 -16.93972 7.053884 16.09394 5.800859
2.551536 99.3642 19.30604 -1.142297 3.883229 1.038529 7.36814 -32.02996 7.738313 -0 18.27401 -0 -6.181409 -7.916125 -1.927539 -5.813956 12.13202 -19.37883 -0 8.277225 -0 2.543985 -25.26383 20.63045 -2.831107 -1.458192 4.520417 3.545205 7.939414 -8.201282 1.811831 19.73067 7.145755 4.367183 -27.48833 9.486106 5.712386 -18.29373 10.84309 85.4408 33.93877 -20.32679 -0 0 15.81035 -6.403653 7.177227 4.011957 8.306767 -20.935 0.2301739 -94.89836 26.55296 21.56389 0 0 -17.18846 6.867019 16.04892 6.064504
2.887929 98.46947 22.86479 -1.495584 4.63456 1.388828 8.038017 -33.91942 7.565613 -0 15.38084 -0 -6.340482 -6.056105 -1.588069 -5.564202 12.69789 -18.76004 -0 10.05838 -0 0.8594182 -26.01635 19.00199 -2.507372 -1.301375 4.40252 3.611018 7.743171 -8.267127 1.936151 19.36808 7.196506 4.50873 -27.93407 9.60318 5.546863 -17.91673 10.67933 85.7685 33.64594 -20.90792 -0 0 15.29368 -6.559514 7.477296 3.942059 8.571351 -21.11298 0.4704225 -94.78006 26.51146 21.29832 0 0 -17.82499 6.757111 15.9354 6.234588
3.193277 97.62513 27.02837 -1.943593 5.230952 1.914789 8.707062 -35.50009 7.188783 -0 13.03474 -0 -6.784565 -3.601712 -1.29955 -5.159702 13.62895 -17.73792 -0 12.7836 -0 -1.184271 -26.03821 16.75722 -1.9915 -1.18683 4.018233 3.646453 7.651278 -8.44217 1.95431 19.05586 7.33035 4.594119 -28.23217 9.677161 5.338095 -17.37674 10.5603 86.49814 33.44422 -21.85504 -0 0 14.06775 -7.283808 8.263701 4.109175 8.618889 -21.3693 0.4844607 -94.10127 26.31148 20.52678 0 0 -18.93339 6.651142 15.67398 6.387244
3.450154 96.97343 31.95675 -2.467981 5.393418 2.621951 9.286373 -35.71803 6.600225 -0 12.22402 -0 -7.56745 -1.054724 -1.129674 -4.567094 14.70457 -16.28263 -0 17.10165 -0 -3.447229 -24.44952 13.94906 -1.156917 -1.187478 3.324035 3.602414 7.740825 -8.719764 1.787314 18.89459 7.496108 4.535729 -28.21889 9.581143 5.059571 -16.75392 10.52167 87.62491 33.25744 -23.01352 -0 0 12.2387 -8.604853 9.459401 4.604024 8.221453 -21.56929 0.09293806 -92.86911 25.89749 19.35649 0 0 -20.28178 6.46553 15.12274 6.579742
3.668076 96.71684 37.625 -3.028522 4.719013 3.350266 9.664381 -33.24601 5.839323 -0 14.02842 -0 -8.663301 0.2243108 -1.183239 -3.740534 14.97737 -14.48894 -0 23.71157 -0 -5.483695 -20.23109 11.03647 0.1378061 -1.235277 2.481106 3.417322 8.061675 -8.97728 1.339753 19.00838 7.615086 4.307232 -27.67814 9.101531 4.749772 -16.28311 10.63506 88.71446 32.97843 -23.72161 -0 0 10.59737 -10.25933 10.57721 5.414719 7.207953 -21.49641 -0.8889587 -91.54494 25.15069 18.39353 0 0 -20.97748 6.128442 14.14367 6.870774
3.902978 96.98625 43.65687 -3.499748 3.289524 3.744716 9.767438 -28.40116 5.063501 -0 17.01218 -0 -9.724421 -1.051433 -1.430801 -2.796704 13.03161 -12.80763 -0 32.53456 -0 -6.795114 -14.09976 8.908443 1.647288 -1.096907 2.132543 3.127655 8.555884 -8.966464 0.7424275 19.34147 7.623376 4.093205 -26.75153 8.259719 4.560081 -16.2345 10.97207 89.04211 32.54112 -23.33461 -0 0 10.30874 -11.59855 10.94958 6.21506 5.956166 -21.20129 -2.17183 -91.04186 24.04685 18.57531 0 0 -20.12241 5.828714 13.0197 7.191553
4.163045 97.67402 49.75842 -3.538909 1.715652 3.636121 9.45929 -23.76266 4.429601 -0 17.0619 -0 -9.862102 -2.899132 -1.894673 -2.190757 9.967554 -11.49913 -0 41.86247 -0 -7.263713 -9.225638 8.181502 2.484241 -0.9830049 2.632016 2.927162 9.348673 -8.810039 0.4440499 19.68107 7.526063 3.880962 -25.90482 7.678476 4.397142 -16.40693 11.52146 89.33649 31.68274 -23.21702 -0 0 10.10742 -13.1734 11.60431 7.081293 5.093676 -21.37766 -3.106326 -90.72521 22.96132 18.89166 0 0 -19.76723 5.717382 12.37511 7.621519
4.391007 98.63489 55.91476 -3.09121 0.2140465 3.165925 8.90056 -19.90052 4.239578 -0 14.97929 -0 -8.908963 -3.640725 -2.534008 -2.054903 7.260357 -10.44791 -0 50.02182 -0 -7.366578 -6.58076 8.52399 2.436417 -1.01298 3.485774 2.809661 10.31116 -8.646425 0.5551923 19.98238 7.300415 3.585649 -25.10897 7.51802 4.234562 -16.48993 12.01814 89.87892 30.67496 -23.69025 -0 0 9.289507 -15.14508 13.01502 8.056053 4.598803 -21.83284 -3.527777 -89.97142 22.38018 18.4278 0 0 -20.68866 5.37151 11.9418 8.392693
4.558348 99.8105 62.04832 -2.380138 -1.2005 2.487524 8.218529 -15.81877 4.397638 -0 13.0901 -0 -7.679237 -4.085246 -2.999973 -2.168153 3.931654 -9.571099 -0 57.03979 -0 -7.492574 -5.085227 9.323613 1.890611 -0.8706538 4.466927 2.628386 11.09182 -8.290034 0.8525856 20.32316 6.967557 3.392078 -24.2298 7.422408 4.228366 -16.53953 12.31277 89.88897 30.15464 -23.58543 -0 0 8.939541 -16.72802 14.24246 8.787345 4.309999 -22.03401 -3.56314 -89.41417 22.25053 17.98732 0 0 -21.28826 4.763496 11.40565 9.286218
4.655793 101.0886 68.06146 -1.453193 -2.575086 1.741309 7.31855 -11.12891 4.623062 -0 11.71002 -0 -6.382334 -4.604204 -3.237486 -2.378224 -0.4350958 -8.712672 -0 62.14998 -0 -7.67159 -4.457642 10.4729 0.9812688 -0.4637102 5.492551 2.314888 11.55115 -7.663665 1.20571 20.7838 6.597665 3.330249 -23.11987 7.272601 4.388657 -16.59183 12.41531 89.11853 30.31201 -22.51819 -0 0 9.256438 -17.98676 15.13246 9.33894 4.19226 -21.8827 -3.338479 -89.1099 22.47365 17.71902 0 0 -21.34658 3.884837 10.7512 10.31264
4.699777 102.2754 73.85257 -0.4321767 -3.757077 1.063784 6.220474 -5.888969 4.586305 -0 10.84187 -0 -5.289242 -5.658447 -3.156038 -2.451125 -5.957983 -7.771117 -0 63.69979 -0 -7.868679 -4.599935 11.84669 -0.09561569 0.2312427 6.426534 1.843456 11.50567 -6.756037 1.464044 21.39607 6.288997 3.411037 -21.72487 6.98113 4.70932 -16.71093 12.35727 87.32165 31.30582 -20.15184 -0 0 10.38231 -19.00331 15.53071 9.831885 4.236842 -21.33589 -2.975097 -89.09699 22.95857 17.76309 0 0 -20.842 2.760986 10.11317 11.48874
4.73632 103.0803 79.38355 0.4362754 -4.593948 0.5024489 5.17663 -0.4578032 4.094207 -0 9.997106 -0 -4.585106 -7.644797 -2.751552 -2.023916 -12.30339 -6.571156 -0 60.22625 -0 -7.880206 -5.261967 13.3923 -0.9873623 1.051659 7.121478 1.26032 11.01114 -5.714194 1.515204 22.05927 6.091969 3.537735 -20.14432 6.534456 4.966625 -17.10797 12.24025 84.59735 32.59795 -16.49688 -0 0 12.34944 -20.04122 15.36 10.51189 4.416241 -20.5366 -2.664698 -89.32331 23.33276 18.17387 0 0 -19.97205 1.663873 9.655562 12.54933
4.827862 103.262 84.75084 0.8585259 -4.984037 -0.03245929 4.546006 4.486975 3.40921 -0 8.790331 -0 -4.121747 -10.50884 -2.196255 -0.8968232 -18.37251 -5.061406 -0 52.13983 -0 -7.573989 -5.972363 14.99784 -1.388515 1.671539 7.49407 0.7260424 10.38589 -4.839823 1.387429 22.51492 5.958111 3.554448 -18.7155 6.035899 4.860066 -17.93053 12.14711 81.66242 33.10918 -12.33729 -0 0 14.96395 -21.14482 14.62024 11.50009 4.641205 -19.70889 -2.50995 -89.69362 23.31293 18.8772 0 0 -18.96097 0.8434056 9.301076 13.25956
